<?xml version="1.0" encoding="UTF-8" standalone="no"?>
<svg
   xmlns:dc="http://purl.org/dc/elements/1.1/"
   xmlns:cc="http://creativecommons.org/ns#"
   xmlns:rdf="http://www.w3.org/1999/02/22-rdf-syntax-ns#"
   xmlns:svg="http://www.w3.org/2000/svg"
   xmlns="http://www.w3.org/2000/svg"
   xmlns:xlink="http://www.w3.org/1999/xlink"
   id="svg8"
   version="1.1"
   viewBox="0 0 228.60001 82.549997"
   height="312"
   width="864">
  <defs
     id="defs2">
    <rect
       id="SVGID_1_"
       y="0"
       width="864"
       height="312" />
  </defs>
  <metadata
     id="metadata5">
    <rdf:RDF>
      <cc:Work
         rdf:about="">
        <dc:format>image/svg+xml</dc:format>
        <dc:type
           rdf:resource="http://purl.org/dc/dcmitype/StillImage" />
        <dc:title></dc:title>
        <cc:license
           rdf:resource="" />
      </cc:Work>
    </rdf:RDF>
  </metadata>
  <g
     style="display:inline"
     id="layer2">
    <g
       style="opacity:0.25"
       transform="scale(0.26458333)"
       id="g4383">
      <g
         id="Layer_2">
        <rect
           x="2.3"
           y="2.3"
           width="859.5"
           height="307.5"
           id="rect4287" />
        <path
           style="fill:#d2d2d2"
           d="m 4.5,4.5 h 855 v 303 H 4.5 Z M 0,312 H 864 V 0 H 0 Z"
           id="path4289" />
        <g
           id="g4297">
          <defs
             id="defs4292" />
          <clipPath
             id="SVGID_2_">
            <use
               height="100%"
               width="100%"
               y="0"
               x="0"
               style="overflow:visible"
               xlink:href="#SVGID_1_"
               overflow="visible"
               id="use4294" />
          </clipPath>
        </g>
      </g>
      <g
         id="Layer_1">
        <rect
           style="fill:#f25022"
           x="70.5"
           y="68.599998"
           width="83.800003"
           height="83.800003"
           id="rect4300" />
        <rect
           style="fill:#7fba00"
           x="163"
           y="68.599998"
           width="83.800003"
           height="83.800003"
           id="rect4302" />
        <rect
           style="fill:#00a4ef"
           x="70.5"
           y="161"
           width="83.800003"
           height="83.800003"
           id="rect4304" />
        <rect
           style="fill:#ffb900"
           x="163"
           y="161"
           width="83.800003"
           height="83.800003"
           id="rect4306" />
        <path
           style="fill:#ffffff"
           d="m 408.3,163 c 0,-2.5 0.9,-4.5 2.7,-6.2 1.8,-1.7 3.9,-2.5 6.4,-2.5 2.6,0 4.8,0.9 6.5,2.6 1.7,1.7 2.6,3.8 2.6,6.1 0,2.4 -0.9,4.5 -2.7,6.1 -1.8,1.7 -3.9,2.5 -6.5,2.5 -2.6,0 -4.7,-0.8 -6.5,-2.5 -1.6,-1.7 -2.5,-3.7 -2.5,-6.1 m 16.5,81.8 h -14.9 v -63.5 h 14.9 z"
           id="path4308" />
        <path
           style="fill:#ffffff"
           d="m 470.2,233.9 c 2.2,0 4.7,-0.5 7.4,-1.5 2.7,-1 5.1,-2.4 7.4,-4.1 v 13.9 c -2.4,1.4 -5.1,2.4 -8.1,3.1 -3,0.7 -6.4,1.1 -10,1.1 -9.3,0 -16.9,-3 -22.8,-8.9 -5.9,-5.9 -8.8,-13.5 -8.8,-22.6 0,-10.2 3,-18.6 9,-25.2 6,-6.6 14.4,-9.9 25.4,-9.9 2.8,0 5.6,0.4 8.5,1.1 2.9,0.7 5.1,1.6 6.8,2.5 v 14.3 c -2.3,-1.7 -4.7,-3 -7.1,-3.9 -2.4,-0.9 -4.9,-1.4 -7.4,-1.4 -5.9,0 -10.6,1.9 -14.3,5.7 -3.6,3.8 -5.4,9 -5.4,15.5 0,6.4 1.7,11.4 5.2,15 3.5,3.6 8.2,5.3 14.2,5.3"
           id="path4310" />
        <path
           style="fill:#ffffff"
           d="m 527.5,180.3 c 1.2,0 2.3,0.1 3.2,0.2 0.9,0.2 1.8,0.4 2.4,0.6 v 15.1 c -0.8,-0.6 -1.9,-1.1 -3.4,-1.6 -1.5,-0.5 -3.3,-0.8 -5.5,-0.8 -3.7,0 -6.8,1.5 -9.3,4.6 -2.5,3.1 -3.8,7.8 -3.8,14.3 v 32.1 h -14.9 v -63.5 h 14.9 v 10 h 0.2 c 1.4,-3.5 3.4,-6.2 6.2,-8.1 2.8,-1.9 6.1,-2.9 10,-2.9"
           id="path4312" />
        <path
           style="fill:#ffffff"
           d="m 533.9,214 c 0,-10.5 3,-18.8 8.9,-25 5.9,-6.1 14.2,-9.2 24.7,-9.2 9.9,0 17.7,3 23.3,8.9 5.6,5.9 8.4,13.9 8.4,23.9 0,10.3 -3,18.5 -8.9,24.6 -5.9,6.1 -14,9.1 -24.2,9.1 -9.8,0 -17.7,-2.9 -23.4,-8.7 -5.9,-5.7 -8.8,-13.6 -8.8,-23.6 m 15.6,-0.5 c 0,6.6 1.5,11.7 4.5,15.2 3,3.5 7.3,5.2 12.9,5.2 5.4,0 9.6,-1.7 12.4,-5.2 2.8,-3.5 4.3,-8.7 4.3,-15.6 0,-6.8 -1.5,-12 -4.4,-15.5 -2.9,-3.5 -7.1,-5.2 -12.4,-5.2 -5.5,0 -9.7,1.8 -12.8,5.5 -3,3.7 -4.5,8.8 -4.5,15.6"
           id="path4314" />
        <path
           style="fill:#ffffff"
           d="m 621.4,198 c 0,2.1 0.7,3.8 2,5 1.4,1.2 4.4,2.7 9,4.6 6,2.4 10.2,5.1 12.6,8.1 2.4,3 3.6,6.6 3.6,10.8 0,6 -2.3,10.8 -6.9,14.4 -4.6,3.6 -10.8,5.4 -18.6,5.4 -2.6,0 -5.5,-0.3 -8.7,-1 -3.2,-0.6 -5.9,-1.5 -8.1,-2.4 v -14.7 c 2.7,1.9 5.6,3.4 8.8,4.5 3.1,1.1 6,1.7 8.5,1.7 3.4,0 5.9,-0.5 7.5,-1.4 1.6,-0.9 2.4,-2.5 2.4,-4.8 0,-2.1 -0.8,-3.8 -2.5,-5.2 -1.7,-1.4 -4.8,-3.1 -9.5,-4.9 -5.5,-2.3 -9.4,-4.9 -11.7,-7.8 -2.3,-2.9 -3.5,-6.6 -3.5,-11 0,-5.7 2.3,-10.4 6.8,-14.1 4.5,-3.7 10.4,-5.5 17.7,-5.5 2.2,0 4.7,0.2 7.5,0.7 2.8,0.5 5.1,1.1 6.9,1.9 v 14.2 c -2,-1.3 -4.3,-2.4 -6.9,-3.4 -2.6,-0.9 -5.3,-1.4 -7.8,-1.4 -2.8,0 -5.1,0.6 -6.6,1.7 -1.7,1.1 -2.5,2.7 -2.5,4.6"
           id="path4316" />
        <path
           style="fill:#ffffff"
           d="m 655.2,214 c 0,-10.5 3,-18.8 8.9,-25 5.9,-6.1 14.2,-9.2 24.7,-9.2 9.9,0 17.7,3 23.3,8.9 5.6,5.9 8.4,13.9 8.4,23.9 0,10.3 -3,18.5 -8.9,24.6 -5.9,6.1 -14,9.1 -24.2,9.1 -9.8,0 -17.7,-2.9 -23.4,-8.7 -5.9,-5.7 -8.8,-13.6 -8.8,-23.6 m 15.5,-0.5 c 0,6.6 1.5,11.7 4.5,15.2 3,3.5 7.3,5.2 12.9,5.2 5.4,0 9.6,-1.7 12.4,-5.2 2.8,-3.5 4.3,-8.7 4.3,-15.6 0,-6.8 -1.5,-12 -4.4,-15.5 -2.9,-3.5 -7.1,-5.2 -12.4,-5.2 -5.5,0 -9.7,1.8 -12.8,5.5 -3,3.7 -4.5,8.8 -4.5,15.6"
           id="path4318" />
        <path
           style="fill:#ffffff"
           d="m 769.8,193.6 v 32.6 c 0,6.8 1.6,11.8 4.7,15.2 3.1,3.4 7.9,5 14.2,5 2.1,0 4.3,-0.2 6.5,-0.7 2.2,-0.5 3.8,-0.9 4.7,-1.5 v -12.4 c -0.9,0.6 -2,1.1 -3.2,1.5 -1.2,0.4 -2.3,0.6 -3.1,0.6 -3,0 -5.3,-0.8 -6.7,-2.4 -1.4,-1.6 -2.1,-4.4 -2.1,-8.3 V 193.5 H 800 v -12.2 h -15.1 v -18.8 l -15,4.6 v 14.3 h -22.3 v -7.7 c 0,-3.8 0.8,-6.7 2.5,-8.7 1.7,-2 4.1,-2.9 7.2,-2.9 1.6,0 3,0.2 4.3,0.6 1.2,0.4 2.1,0.8 2.6,1.1 v -12.9 c -1.1,-0.4 -2.3,-0.6 -3.7,-0.8 -1.4,-0.2 -3,-0.3 -4.8,-0.3 -6.8,0 -12.4,2.1 -16.7,6.4 -4.3,4.3 -6.5,9.7 -6.5,16.4 v 8.8 h -10.6 v 12.2 h 10.6 v 51.3 h 15.1 v -51.3 z"
           id="path4320" />
        <polygon
           style="fill:#ffffff"
           points="379.9,175.4 352.4,244.8 342.2,244.8 314,175.4 313.8,175.4 313.8,244.8 299.6,244.8 299.6,156.2 321.6,156.2 347.1,221.9 347.5,221.9 374.4,156.2 395.5,156.2 395.5,244.8 380.1,244.8 380.1,175.4 "
           id="polygon4322" />
        <path
           style="fill:#ffffff"
           d="m 340,117.9 c -5.3,3 -11.3,4.5 -18,4.5 -5.1,0 -9.6,-1.1 -13.6,-3.4 -3.9,-2.2 -7,-5.4 -9.1,-9.5 -2.1,-4.1 -3.2,-8.7 -3.2,-13.8 0,-5.4 1.2,-10.3 3.5,-14.5 2.3,-4.2 5.6,-7.6 9.9,-10 4.3,-2.4 9.1,-3.6 14.5,-3.6 2.7,0 5.4,0.3 8.1,0.8 2.7,0.5 4.9,1.2 6.6,2 v 8 c -4,-2.7 -9.1,-4 -15.3,-4 -3.7,0 -7,0.9 -10,2.7 -3,1.8 -5.3,4.3 -6.9,7.4 -1.6,3.2 -2.4,6.8 -2.4,10.8 0,6.3 1.7,11.3 5,15 3.3,3.7 7.9,5.5 13.7,5.5 3.7,0 7,-0.7 9.8,-2.2 V 99.9 H 321.3 V 93.3 H 340 Z"
           id="path4324" />
        <path
           style="fill:#ffffff"
           d="m 383.1,104.6 h -26.2 c 0.1,3.8 1.3,6.7 3.3,8.8 2.1,2 4.8,3.1 8.2,3.1 4.5,0 8.4,-1.3 11.8,-3.9 v 6.4 c -1.5,1 -3.4,1.9 -5.7,2.5 -2.3,0.6 -4.7,0.9 -7.1,0.9 -5.7,0 -10.2,-1.7 -13.3,-5.1 -3.1,-3.4 -4.7,-8.2 -4.7,-14.4 0,-3.8 0.8,-7.3 2.3,-10.3 1.5,-3.1 3.7,-5.5 6.4,-7.2 2.7,-1.7 5.8,-2.6 9.1,-2.6 4.9,0 8.8,1.6 11.6,4.8 2.8,3.2 4.2,7.6 4.2,13.3 v 3.7 z m -7.3,-5.7 c 0,-3.3 -0.8,-5.8 -2.3,-7.5 -1.5,-1.7 -3.6,-2.6 -6.4,-2.6 -2.5,0 -4.7,0.9 -6.6,2.7 -1.9,1.8 -3,4.3 -3.6,7.4 z"
           id="path4326" />
        <path
           style="fill:#ffffff"
           d="m 411.5,121.1 c -0.7,0.4 -1.6,0.7 -2.9,0.9 -1.2,0.2 -2.3,0.3 -3.3,0.3 -7,0 -10.5,-3.9 -10.5,-11.6 v -21 h -6.4 v -6 h 6.4 v -9 l 7.3,-2.3 v 11.2 h 9.3 v 6 h -9.3 v 19.8 c 0,2.5 0.4,4.3 1.2,5.3 0.8,1 2.2,1.5 4.3,1.5 1.4,0 2.7,-0.4 3.8,-1.2 v 6.1 z"
           id="path4328" />
        <path
           style="fill:#ffffff"
           d="m 447.7,70.3 c 0,1.2 -0.4,2.2 -1.3,3.1 -0.9,0.9 -2,1.3 -3.3,1.3 -1.3,0 -2.4,-0.4 -3.3,-1.3 -0.9,-0.8 -1.3,-1.9 -1.3,-3.2 0,-1.3 0.5,-2.4 1.4,-3.2 0.9,-0.8 2,-1.3 3.2,-1.3 1.2,0 2.3,0.4 3.2,1.3 1,1 1.4,2 1.4,3.3 m -1,51.2 h -7.3 V 83.7 h 7.3 z"
           id="path4330" />
        <path
           style="fill:#ffffff"
           d="m 478.4,121.1 c -0.7,0.4 -1.6,0.7 -2.9,0.9 -1.2,0.2 -2.3,0.3 -3.3,0.3 -7,0 -10.5,-3.9 -10.5,-11.6 v -21 h -6.4 v -6 h 6.4 v -9 l 7.3,-2.3 v 11.2 h 9.3 v 6 H 469 v 19.8 c 0,2.5 0.4,4.3 1.2,5.3 0.8,1 2.2,1.5 4.3,1.5 1.4,0 2.7,-0.4 3.8,-1.2 v 6.1 z"
           id="path4332" />
        <path
           style="fill:#ffffff"
           d="m 526.2,71.7 c -1.2,-0.6 -2.5,-1 -4,-1 -4.1,0 -6.1,2.5 -6.1,7.5 v 5.4 h 8.6 v 6 h -8.6 v 31.8 h -7.3 V 89.7 h -6.4 v -6 h 6.4 v -5.8 c 0,-4 1.1,-7.2 3.4,-9.6 2.3,-2.4 5.4,-3.6 9.4,-3.6 2,0 3.5,0.2 4.7,0.7 v 6.3 z"
           id="path4334" />
        <path
           style="fill:#ffffff"
           d="m 553.1,91 c -0.4,-0.3 -1.2,-0.6 -2.2,-0.9 -1,-0.2 -1.9,-0.4 -2.6,-0.4 -2.6,0 -4.7,1.2 -6.3,3.5 -1.6,2.3 -2.4,5.3 -2.4,9 v 19.3 h -7.3 V 83.7 h 7.3 v 7.6 h 0.2 c 0.8,-2.6 2.1,-4.6 3.8,-6.1 1.7,-1.5 3.7,-2.2 5.9,-2.2 1.5,0 2.7,0.2 3.5,0.5 V 91 Z"
           id="path4336" />
        <path
           style="fill:#ffffff"
           d="m 594.8,102.4 c 0,6.1 -1.8,11 -5.3,14.6 -3.5,3.6 -8.2,5.4 -14,5.4 -5.7,0 -10.3,-1.8 -13.7,-5.3 -3.4,-3.5 -5.1,-8.2 -5.1,-14.1 0,-6.3 1.8,-11.2 5.3,-14.8 3.5,-3.6 8.3,-5.4 14.4,-5.4 5.7,0 10.2,1.7 13.4,5.2 3.4,3.5 5,8.3 5,14.4 m -7.5,0.2 c 0,-4.5 -1,-7.9 -2.9,-10.2 -2,-2.3 -4.7,-3.5 -8.3,-3.5 -3.6,0 -6.5,1.2 -8.6,3.7 -2.1,2.4 -3.1,5.9 -3.1,10.3 0,4.3 1,7.6 3.1,10 2.1,2.4 4.9,3.6 8.6,3.6 3.7,0 6.5,-1.2 8.4,-3.5 1.8,-2.5 2.8,-5.9 2.8,-10.4"
           id="path4338" />
        <path
           style="fill:#ffffff"
           d="m 660.1,121.5 h -7.3 V 100 c 0,-3.9 -0.6,-6.7 -1.8,-8.5 -1.2,-1.8 -3.3,-2.6 -6.2,-2.6 -2.4,0 -4.5,1.1 -6.1,3.3 -1.7,2.2 -2.5,4.9 -2.5,7.9 v 21.4 h -7.3 V 99.3 c 0,-6.9 -2.7,-10.4 -8,-10.4 -2.5,0 -4.6,1.1 -6.2,3.2 -1.6,2.1 -2.4,4.8 -2.4,8.1 v 21.4 H 605 V 83.7 h 7.3 v 5.9 h 0.1 c 2.7,-4.6 6.7,-6.8 11.8,-6.8 2.4,0 4.6,0.7 6.6,2 1.9,1.3 3.3,3.2 4.2,5.6 1.5,-2.6 3.2,-4.5 5.3,-5.8 2.1,-1.2 4.5,-1.9 7.3,-1.9 8.3,0 12.4,5.1 12.4,15.4 v 23.4 z"
           id="path4340" />
      </g>
    </g>
  </g>
  <g
     id="layer6">
    <rect
       y="0.39600676"
       x="0.39601132"
       height="81.757988"
       width="227.80798"
       id="rect4864"
       style="opacity:1;fill:#000000;stroke:#d2d2d2;stroke-width:0.79201055;stroke-miterlimit:4;stroke-dasharray:none;stroke-opacity:1" />
  </g>
  <g
     id="layer5">
    <text
       id="text4505"
       y="31.985464"
       x="78.210213"
       style="font-style:normal;font-weight:normal;font-size:10.58333302px;line-height:1.25;font-family:sans-serif;letter-spacing:0px;word-spacing:0px;display:inline;opacity:1;fill:#ffffff;fill-opacity:1;stroke:none;stroke-width:0.26458332"
       xml:space="preserve"><tspan
         style="font-style:normal;font-variant:normal;font-weight:normal;font-stretch:normal;font-size:19.75555757px;font-family:'Segoe UI';-inkscape-font-specification:'Segoe UI';opacity:1;fill:#ffffff;stroke-width:0.26458332"
         y="31.985464"
         x="78.210213"
         id="tspan4503">View on</tspan></text>
  </g>
  <g
     style="display:inline"
     transform="translate(0,-214.45003)"
     id="layer1">
    <path
       d="m 41.902031,233.18504 c -12.762303,0 -23.10977,10.32836 -23.10977,23.06991 0,10.1924 6.621641,18.83831 15.805675,21.89022 1.156339,0.21101 1.57773,-0.50135 1.57773,-1.11315 0,-0.54665 -0.01986,-1.99825 -0.03121,-3.92287 -6.428681,1.39354 -7.785074,-3.09298 -7.785074,-3.09298 -1.051348,-2.66529 -2.566649,-3.37481 -2.566649,-3.37481 -2.098438,-1.43036 0.158908,-1.40204 0.158908,-1.40204 2.319774,0.16288 3.53996,2.3778 3.53996,2.3778 2.061549,3.52492 5.409967,2.50668 6.726634,1.91612 0.209986,-1.48984 0.805891,-2.50667 1.467062,-3.08307 -5.131879,-0.58206 -10.527659,-2.5619 -10.527659,-11.40181 0,-2.51802 0.900953,-4.57717 2.379365,-6.19022 -0.238361,-0.58348 -1.031483,-2.92871 0.225594,-6.10525 0,0 1.940947,-0.62028 6.35632,2.36506 1.843051,-0.51266 3.820888,-0.76757 5.785956,-0.77608 1.962231,0.008 3.940068,0.26342 5.785955,0.77608 4.412537,-2.98534 6.349226,-2.36506 6.349226,-2.36506 1.261335,3.17654 0.468212,5.52177 0.22985,6.10525 1.481251,1.61305 2.376527,3.6722 2.376527,6.19022 0,8.86257 -5.404291,10.81268 -10.553197,11.38341 0.830012,0.71234 1.569218,2.12005 1.569218,4.27267 0,3.08307 -0.02837,5.57134 -0.02837,6.32758 0,0.61747 0.415715,1.33548 1.589081,1.1103 9.176939,-3.05757 15.792906,-11.6978 15.792906,-21.88737 0,-12.74155 -10.348887,-23.06991 -23.114025,-23.06991"
       style="fill:#ffffff;fill-opacity:1;fill-rule:evenodd;stroke:none;stroke-width:1.41751051"
       id="path3917" />
  </g>
  <g
     style="display:inline"
     id="layer4">
    <g
       transform="matrix(0.68255775,0,0,0.68255775,25.569964,19.215133)"
       id="g1129">
      <path
         id="path5371"
         style="fill:#ffffff;fill-opacity:1;fill-rule:nonzero;stroke:none;stroke-width:0.35277775"
         d="M 103.15437,46.871115 H 92.476849 c -0.275519,0 -0.49918,0.223661 -0.49918,0.49918 v 5.220406 c 0,0.275519 0.223661,0.499533 0.49918,0.499533 h 4.165247 v 6.486173 c 0,0 -0.935213,0.318558 -3.521074,0.318558 -3.05047,0 -7.312026,-1.114425 -7.312026,-10.485614 0,-9.372953 4.437592,-10.606264 8.603545,-10.606264 3.606094,0 5.159728,0.635 6.148209,0.940858 0.3108,0.0949 0.59796,-0.214136 0.59796,-0.489655 l 1.19133,-5.044017 c 0,-0.129116 -0.0437,-0.284339 -0.1905,-0.389819 -0.40146,-0.286456 -2.850796,-1.656997 -9.038518,-1.656997 -7.127876,0 -14.4399,3.03283 -14.4399,17.611372 0,14.578895 8.371416,16.751298 15.425913,16.751298 5.840942,0 9.384245,-2.495901 9.384245,-2.495901 0.14605,-0.08043 0.16192,-0.284692 0.16192,-0.378177 V 47.370295 c 0,-0.275519 -0.22331,-0.49918 -0.49883,-0.49918" />
      <path
         id="path5375"
         style="fill:#ffffff;fill-opacity:1;fill-rule:nonzero;stroke:none;stroke-width:0.35277775"
         d="m 158.18185,33.910307 c 0,-0.277636 -0.22013,-0.502003 -0.49565,-0.502003 h -6.01204 c -0.27482,0 -0.49777,0.224367 -0.49777,0.502003 0,0.0014 0.001,11.618736 0.001,11.618736 h -9.3711 V 33.910307 c 0,-0.277636 -0.22119,-0.502003 -0.49636,-0.502003 h -6.01169 c -0.2734,0 -0.49636,0.224367 -0.49636,0.502003 v 31.460017 c 0,0.277284 0.22296,0.50306 0.49636,0.50306 h 6.01169 c 0.27517,0 0.49636,-0.225776 0.49636,-0.50306 V 51.913615 h 9.37119 c 0,0 -0.0162,13.455651 -0.0162,13.456709 0,0.277284 0.2226,0.50306 0.49812,0.50306 h 6.02615 c 0.27516,0 0.4953,-0.225776 0.496,-0.50306 z" />
      <path
         id="path5379"
         style="fill:#ffffff;fill-opacity:1;fill-rule:nonzero;stroke:none;stroke-width:0.35277775"
         d="m 114.49942,38.038582 c 0,-2.164644 -1.73566,-3.914069 -3.87702,-3.914069 -2.13925,0 -3.87597,1.749425 -3.87597,3.914069 0,2.162528 1.73672,3.916892 3.87597,3.916892 2.14136,0 3.87702,-1.754364 3.87702,-3.916892" />
      <path
         id="path5383"
         style="fill:#ffffff;fill-opacity:1;fill-rule:nonzero;stroke:none;stroke-width:0.35277775"
         d="M 114.06949,58.733939 V 44.211842 c 0,-0.275519 -0.22225,-0.500944 -0.49741,-0.500944 h -5.99299 c -0.27517,0 -0.52105,0.28328 -0.52105,0.559152 v 20.805774 c 0,0.611011 0.381,0.793044 0.87418,0.793044 h 5.39962 c 0.59231,0 0.73765,-0.291042 0.73765,-0.80292 z" />
      <path
         id="path5387"
         style="fill:#ffffff;fill-opacity:1;fill-rule:nonzero;stroke:none;stroke-width:0.35277775"
         d="m 181.03042,43.758133 h -5.96583 c -0.27375,0 -0.49635,0.225425 -0.49635,0.503061 v 15.42556 c 0,0 -1.51589,1.109133 -3.66713,1.109133 -2.15124,0 -2.72203,-0.976135 -2.72203,-3.082571 V 44.261194 c 0,-0.277636 -0.22225,-0.503061 -0.49601,-0.503061 h -6.05508 c -0.27305,0 -0.49706,0.225425 -0.49706,0.503061 v 14.470592 c 0,6.256514 3.48686,7.787216 8.28358,7.787216 3.93558,0 7.10847,-2.174168 7.10847,-2.174168 0,0 0.15063,1.14582 0.21942,1.281641 0.0681,0.135467 0.24624,0.272344 0.43886,0.272344 l 3.85198,-0.01693 c 0.27305,0 0.49706,-0.225777 0.49706,-0.502357 l -0.002,-21.118335 c 0,-0.277636 -0.22296,-0.503061 -0.49777,-0.503061" />
      <path
         id="path5391"
         style="fill:#ffffff;fill-opacity:1;fill-rule:nonzero;stroke:none;stroke-width:0.35277775"
         d="m 194.98341,60.776734 c -2.06939,-0.06315 -3.4731,-1.00189 -3.4731,-1.00189 v -9.962796 c 0,0 1.38466,-0.848783 3.08364,-1.000478 2.14841,-0.192264 4.21851,0.456495 4.21851,5.58165 0,5.404204 -0.93415,6.471004 -3.82905,6.383514 m 2.35303,-17.725319 c -3.38843,0 -5.69313,1.512005 -5.69313,1.512005 V 33.910237 c 0,-0.277636 -0.22225,-0.502003 -0.496,-0.502003 h -6.02933 c -0.2741,0 -0.49671,0.224367 -0.49671,0.502003 v 31.460016 c 0,0.277635 0.22261,0.503415 0.49742,0.503415 h 4.18324 c 0.18838,0 0.3309,-0.09737 0.43638,-0.267407 0.10407,-0.168981 0.254,-1.450268 0.254,-1.450268 0,0 2.46521,2.336093 7.13211,2.336093 5.47934,0 8.62154,-2.779183 8.62154,-12.476338 0,-9.697155 -5.01862,-10.964333 -8.40952,-10.964333" />
      <path
         id="path5395"
         style="fill:#ffffff;fill-opacity:1;fill-rule:nonzero;stroke:none;stroke-width:0.35277775"
         d="m 131.34855,43.708003 h -4.50991 c 0,0 -0.007,-5.956653 -0.007,-5.958064 0,-0.225425 -0.11606,-0.338314 -0.37712,-0.338314 h -6.14539 c -0.23883,0 -0.36724,0.10548 -0.36724,0.335139 v 6.156678 c 0,0 -3.07975,0.743302 -3.28789,0.803627 -0.20743,0.05997 -0.36018,0.251178 -0.36018,0.479425 v 3.868914 c 0,0.277989 0.22225,0.502709 0.49706,0.502709 h 3.15101 v 9.307688 c 0,6.913033 4.84928,7.592131 8.1213,7.592131 1.49542,0 3.28401,-0.480131 3.57928,-0.589139 0.17851,-0.06562 0.28258,-0.250473 0.28258,-0.45085 l 0.005,-4.256265 c 0,-0.277635 -0.2346,-0.502354 -0.49848,-0.502354 -0.26282,0 -0.93521,0.106892 -1.62736,0.106892 -2.21509,0 -2.96581,-1.029759 -2.96581,-2.362906 0,-1.332442 -2.6e-4,-8.845197 -2.6e-4,-8.845197 h 4.51016 c 0.27481,0 0.49777,-0.22472 0.49777,-0.502709 V 44.2093 c 0,-0.277636 -0.22296,-0.501297 -0.49777,-0.501297" />
    </g>
  </g>
</svg>
